<?xml version="1.0" encoding="UTF-8"?>
<!-- Generator: Adobe Illustrator 15.0.0, SVG Export Plug-In . SVG Version: 6.00 Build 0)  -->
<!DOCTYPE svg PUBLIC "-//W3C//DTD SVG 1.1//EN" "http://www.w3.org/Graphics/SVG/1.1/DTD/svg11.dtd">
<svg version="1.1" id="Vrstva_1" xmlns="http://www.w3.org/2000/svg" xmlns:xlink="http://www.w3.org/1999/xlink" x="0px" y="0px" width="60px" height="60px" viewBox="0 0 60 60" enable-background="new 0 0 60 60" xml:space="preserve">
<g>
	<path fill-rule="evenodd" clip-rule="evenodd" fill="#D3E4B8" d="M0.085,43.728c0.2,0.37,0.259,0.74,0,1.165L0,44.978l0.085,3.174   c0.793-0.199,1.448-0.509,1.842-1.505c0.54-1.613,1.757-2.604,1.188-4.363c-0.648-1.39-1.413-3.6-2.601-2.805l-0.454,0.34   l0.025,3.885V43.728"/>
	<path fill-rule="evenodd" clip-rule="evenodd" fill="#D3E4B8" d="M60,39.734c-1.018,0.734-1.752,1.67-1.158,2.354   c0.31,0.595,0.879,1.104,1.158,1.64V39.734"/>
	<path fill-rule="evenodd" clip-rule="evenodd" fill="#D3E4B8" d="M60,44.948c-0.849,0.766-1.188,1.729-2.236,1.729   c-1.328,0.2-2.74-0.989-3.364,0.2c-0.569,0.79-1.188,1.415-0.794,2.181c0.424,0.794,1.643,1.419,2.631,0.794   c0.539-0.564,0.964-0.99,1.957-1.335c0.648-0.169,1.272-0.225,1.807-0.34v-3.174V44.948"/>
	<polyline fill-rule="evenodd" clip-rule="evenodd" fill="#D3E4B8" points="22.699,59.97 22.699,57.675 22.475,57.05 22.275,56.681    22.05,56.061 21.82,55.715 20.293,54.867 20.068,54.642 19.674,54.642 19.444,54.642 19.105,54.501 17.832,54.642 17.462,54.642    16.474,54.077 16.05,54.077 15.426,54.301 15.086,54.501 14.861,54.642 14.662,55.066 14.437,55.492 14.098,56.061 13.868,56.486    13.868,56.681 14.237,56.911 14.662,57.05 15.426,57.251 16.05,57.251 18.456,57.476 18.88,57.9 18.88,58.101 19.105,58.891    19.105,59.316 18.88,59.885 18.825,60 22.699,60 22.699,59.97  "/>
	<polyline fill-rule="evenodd" clip-rule="evenodd" fill="#D3E4B8" points="18.825,0.025 18.486,0.705 18.256,0.905 17.832,0.905    14.237,1.105 13.898,1.105 13.474,1.33 13.049,1.33 12.286,1.47 11.861,1.67 11.492,1.895 11.067,2.095 10.304,2.665 9.879,3.09    9.315,3.74 9.116,3.879 9.116,4.304 9.315,4.929 9.68,5.269 10.503,5.694 10.868,5.924 11.492,6.119 12.061,6.264 12.485,6.264    14.098,6.264 15.88,5.924 16.868,5.694 17.268,5.694 17.832,5.494 18.256,5.494 18.88,5.269 19.25,5.069 20.438,4.929    21.287,4.504 21.511,4.304 21.851,4.304 22.08,3.879 22.699,3.314 22.699,2.665 22.699,2.52 22.699,0 18.825,0.025  "/>
	<polyline fill-rule="evenodd" clip-rule="evenodd" fill="#D3E4B8" points="29.039,56.032 27.481,55.521 27.057,55.521    26.408,55.096 26.069,54.867 25.844,54.671 25.445,53.876 25.22,52.886 25.22,52.487 25.445,52.261 26.408,50.702 26.633,49.852    26.633,49.738 26.633,49.312 26.408,48.887 26.293,48.323 25.844,47.897 25.645,47.667 25.075,47.667 24.651,47.897 24.456,47.897    24.227,48.323 23.887,49.087 23.663,49.312 23.268,50.077 22.814,50.702 22.814,51.072 22.699,51.497 22.699,52.886 24.227,57.276    25.075,57.701 26.069,58.125 26.408,58.125 26.833,58.271 28.246,58.271 28.669,58.271 29.039,58.125 29.438,57.9 29.663,57.05    29.663,56.711 29.438,56.286 29.039,56.032  "/>
	<polyline fill-rule="evenodd" clip-rule="evenodd" fill="#D3E4B8" points="36.173,59.97 36.197,59.855 36.197,59.431    36.197,58.866 36.003,52.462 35.663,51.667 35.21,51.466 35.01,51.267 34.445,50.902 32.833,50.477 31.076,50.277 30.427,50.277    28.814,50.277 28.475,51.667 29.238,52.462 29.663,52.462 30.002,52.231 30.427,52.231 31.645,52.462 31.84,52.657 32.634,53.082    33.033,53.651 33.457,54.501 33.597,54.867 33.821,55.492 33.821,55.831 33.821,56.255 33.821,56.681 33.821,58.241 33.597,58.667    33.457,58.866 33.457,59.291 33.258,59.661 33.258,59.855 33.173,60 36.173,60 36.173,59.97  "/>
	<polyline fill-rule="evenodd" clip-rule="evenodd" fill="#D3E4B8" points="33.202,0.025 33.058,0.255 32.634,1.105 32.409,1.105    32.264,1.47 32.069,1.895 32.069,2.095 32.264,4.08 32.409,4.279 32.833,4.504 33.058,4.705 33.482,4.705 34.476,4.504    34.815,4.504 35.663,3.09 36.003,1.47 36.197,0 33.202,0.025  "/>
	<polyline fill-rule="evenodd" clip-rule="evenodd" fill="#D3E4B8" points="22.08,7.309 21.626,7.879 21.511,8.529 21.287,10.289    21.287,10.938 21.511,11.703 21.511,12.128 21.851,12.893 22.08,13.318 22.699,13.888 23.692,14.508 24.032,14.738 24.651,15.078    25.445,15.503 26.293,15.927 26.633,16.068 27.057,16.292 27.481,16.292 27.626,16.493 28.051,16.722 30.457,16.722 30.882,16.722    31.076,16.722 31.445,16.292 31.645,15.927 31.645,14.508 31.645,14.083 31.445,13.548 30.651,13.318 29.888,12.893 29.238,12.693    28.051,11.903 27.287,11.278 26.863,10.938 26.633,10.289 26.438,8.869 26.438,8.529 26.633,7.879 26.633,7.479 26.863,6.689    25.869,5.299 25.22,5.069 24.881,5.069 24.257,5.299 23.887,5.494 23.463,5.694 22.844,6.264 22.275,6.914 22.08,7.309  "/>
	<polyline fill-rule="evenodd" clip-rule="evenodd" fill="#D3E4B8" points="15.88,17.882 15.456,18.107 15.086,18.337    14.662,18.677 13.673,19.527 13.474,19.667 13.049,19.867 13.049,20.517 12.71,20.717 12.485,21.512 12.286,22.702 12.061,22.896    12.061,23.266 12.286,23.691 12.485,23.891 12.91,24.116 13.274,24.116 14.098,24.116 14.462,24.116 15.086,24.116 15.456,24.116    15.88,23.691 16.08,23.466 16.504,22.702 16.644,22.277 16.843,21.907 17.068,21.512 17.492,20.856 18.256,20.717 18.681,20.517    19.25,20.517 19.674,20.292 20.098,20.292 21.086,19.527 21.287,19.297 21.511,18.447 21.511,18.107 21.287,17.118 21.287,16.692    21.086,16.493 20.862,16.068 20.323,15.698 18.681,15.078 18.057,15.927 18.057,16.268 17.492,16.917 16.304,17.682 15.88,17.882     "/>
	<polyline fill-rule="evenodd" clip-rule="evenodd" fill="#D3E4B8" points="4.672,9.269 4.108,9.269 3.115,9.693 2.891,10.059    2.691,10.258 2.466,10.909 2.466,12.298 2.466,12.668 2.466,13.293 2.691,13.858 2.891,14.283 3.879,15.272 4.303,15.698    5.067,16.268 6.061,16.692 6.909,16.893 8.661,17.118 9.085,17.118 10.304,16.268 10.868,15.698 11.267,14.508 11.492,14.083    11.831,13.518 12.485,12.668 12.68,12.668 13.673,12.298 14.098,11.673 14.098,11.249 14.098,10.909 13.898,10.684 13.049,10.483    12.68,10.483 12.255,10.909 11.831,10.909 11.691,11.249 11.267,11.478 10.304,12.098 10.079,12.298 9.315,12.468 8.891,12.468    8.467,12.298 8.267,12.098 8.097,10.483 7.703,10.059 7.473,9.833 7.273,9.693 6.909,9.494 4.672,9.269  "/>
	<polyline fill-rule="evenodd" clip-rule="evenodd" fill="#D3E4B8" points="6.739,59.97 6.709,59.855 6.485,59.316 6.485,54.642    6.061,54.077 5.861,54.077 5.491,54.077 4.503,54.077 4.303,54.077 4.079,54.501 3.679,54.642 3.679,54.867 3.455,55.292    3.455,55.492 3.455,55.862 3.455,56.911 3.679,57.251 3.879,57.476 3.879,57.9 3.679,58.465 3.455,58.891 3.315,59.09 2.691,59.46    2.466,59.661 2.126,59.855 1.842,60 6.739,60 6.739,59.97  "/>
	<polyline fill-rule="evenodd" clip-rule="evenodd" fill="#D3E4B8" points="1.787,0.025 1.079,0.255 0.909,0.68 0.909,0.875    0.709,1.445 0.709,1.67 0.909,2.295 1.079,2.495 1.278,2.665 1.702,2.665 1.897,2.859 2.267,2.859 2.466,3.06 2.691,3.484    2.891,4.05 3.115,5.044 3.455,5.044 4.303,4.705 4.643,4.475 5.296,4.05 5.491,3.854 5.861,3.709 6.061,3.484 6.485,3.285    6.709,3.06 6.909,2.495 7.049,1.87 7.049,1.445 7.049,0.875 6.909,0.255 6.739,0 1.812,0.025 1.787,0.025  "/>
	<polyline fill-rule="evenodd" clip-rule="evenodd" fill="#D3E4B8" points="9.34,54.642 9.455,54.642 10.673,54.642 11.098,54.527    11.522,53.876 11.861,53.112 12.086,52.687 12.91,52.117 13.274,51.921 13.698,51.691 14.268,51.691 16.644,51.497 16.868,51.267    17.068,50.702 17.068,50.502 16.868,49.512 16.644,49.288 16.08,49.087 14.691,48.663 14.268,48.663 14.123,48.663 11.861,48.517    11.522,48.323 10.528,47.897 9.455,47.328 9.116,47.103 8.916,47.103 8.267,47.328 7.927,47.472 7.503,48.323 7.703,48.663    7.927,48.887 8.127,49.288 8.267,49.512 8.492,49.852 8.916,50.502 9.116,51.072 9.116,51.497 8.916,52.117 8.691,53.112    8.691,53.452 8.916,54.301 8.916,54.642 9.34,54.642  "/>
	<polyline fill-rule="evenodd" clip-rule="evenodd" fill="#D3E4B8" points="35.464,7.649 35.039,7.879 34.476,8.074 34.051,10.059    34.051,10.684 34.051,11.478 34.051,11.673 34.051,12.098 34.246,12.328 35.663,13.318 35.858,13.318 36.852,13.518 37.076,13.518    37.646,13.318 38.069,13.318 38.265,12.893 38.409,12.098 38.409,11.478 38.634,10.059 38.634,9.693 38.409,9.294 38.409,9.068    38.265,8.644 38.069,8.499 37.416,8.074 37.221,7.879 36.852,7.649 36.428,7.649 36.003,7.649 35.464,7.649  "/>
	<polyline fill-rule="evenodd" clip-rule="evenodd" fill="#D3E4B8" points="34.051,24.856 33.482,24.316 32.833,23.891    32.409,23.667 31.645,23.236 31.076,23.097 28.814,22.472 28.051,22.247 27.481,22.247 26.633,22.046 26.069,22.046 22.699,22.247    21.511,22.896 20.632,23.466 20.438,24.091 20.438,24.456 20.438,24.656 21.086,25.506 21.511,25.646 21.626,25.846 22.08,26.071    22.844,26.496 23.692,26.496 27.481,26.695 28.051,26.695 33.627,26.695 34.246,26.496 34.476,26.271 34.476,25.846 34.246,25.506    34.051,24.856  "/>
	<polyline fill-rule="evenodd" clip-rule="evenodd" fill="#D3E4B8" points="37.076,29.445 37.076,30.095 37.076,30.435    37.416,30.666 37.615,31.09 37.84,31.291 38.604,31.855 38.834,32.081 39.028,32.28 39.453,32.28 39.598,32.081 39.792,31.855    40.021,31.291 40.021,30.865 40.446,29.871 40.446,29.246 40.446,28.906 40.446,25.306 40.222,24.656 40.021,24.091 39.598,23.466    39.453,23.236 39.258,23.097 39.028,22.702 38.604,22.247 37.615,22.702 37.416,23.466 37.076,25.306 36.852,26.071 37.076,29.246    37.076,29.445  "/>
	<polyline fill-rule="evenodd" clip-rule="evenodd" fill="#D3E4B8" points="21.511,36.08 21.626,35.679 22.05,35.455 22.275,35.254    22.844,34.69 23.039,34.035 23.268,33.694 23.268,33.469 23.039,33.074 22.844,32.706 22.475,32.081 22.05,31.291 21.626,30.865    20.632,30.865 20.293,30.865 20.068,30.865 19.444,31.515 19.25,31.655 19.25,31.855 19.674,32.28 19.869,32.505 20.068,32.844    20.293,33.074 20.438,33.469 20.438,33.895 20.068,34.69 19.869,34.889 19.674,35.114 19.105,35.455 18.456,35.679 17.832,36.08    17.692,36.444 17.492,36.645 17.268,37.294 17.038,39.053 17.038,39.479 17.268,39.903 17.038,40.104 19.869,40.894 20.438,40.894    20.862,40.668 21.057,40.244 21.511,40.104 21.511,38.914 21.511,38.489 21.511,37.718 21.287,37.069 21.287,36.645 21.511,36.08     "/>
	<polyline fill-rule="evenodd" clip-rule="evenodd" fill="#D3E4B8" points="33.482,37.27 34.246,37.495 34.67,37.495 35.239,37.495    35.434,37.27 35.434,37.069 35.239,36.444 35.01,35.879 34.815,35.23 34.445,35.084 34.021,35.084 32.833,34.889 32.264,34.66    31.221,33.895 31.076,33.694 30.457,33.044 30.457,32.706 30.002,32.48 30.002,32.055 29.663,31.855 29.464,31.855 28.669,32.055    28.051,32.48 27.626,32.706 27.481,32.844 27.481,33.27 27.481,33.469 27.821,33.694 28.475,34.264 28.669,34.464 29.039,34.66    29.238,35.084 29.663,35.084 30.457,35.455 31.445,36.08 32.409,36.645 32.634,36.645 33.482,37.27  "/>
	<polyline fill-rule="evenodd" clip-rule="evenodd" fill="#D3E4B8" points="44.635,35.455 45.822,36.105 46.672,36.674    46.871,36.87 47.011,37.099 47.664,37.099 48.059,37.099 48.623,36.87 48.854,36.674 49.417,34.915 50.266,33.5 50.465,32.706    50.465,30.666 50.465,30.465 50.266,29.9 50.041,29.475 49.417,28.906 49.048,28.906 48.623,28.906 48.429,28.906 48.059,29.105    47.859,29.475 47.859,29.9 47.859,30.095 47.435,31.315 47.24,31.655 47.011,31.885 46.672,32.28 46.446,32.505 45.683,32.706    45.259,32.706 44.265,33.074 44.265,33.27 44.07,34.065 44.07,34.49 44.265,34.915 44.265,35.254 44.635,35.455  "/>
	<polyline fill-rule="evenodd" clip-rule="evenodd" fill="#D3E4B8" points="0.085,26.271 0.285,26.071 0.514,25.846 0.909,25.646    1.278,25.506 1.897,25.081 2.267,24.656 2.891,24.456 3.455,23.891 3.455,23.466 3.315,22.896 3.115,22.472 2.891,22.247    2.691,22.046 1.473,21.481 0.06,21.227 0.085,26.271  "/>
	<polyline fill-rule="evenodd" clip-rule="evenodd" fill="#D3E4B8" points="59.976,21.257 59.182,21.087 58.617,20.856    58.418,20.856 57.993,20.717 57.425,19.867 56.775,19.297 56.576,18.447 56.436,18.337 56.211,18.107 55.587,17.882 55.248,17.882    53.605,17.882 52.842,18.337 52.642,18.447 52.218,18.872 52.218,19.297 52.218,19.667 52.218,20.517 52.417,20.717 52.842,21.087    54.029,22.046 54.169,22.277 54.823,22.472 55.248,22.702 55.388,22.896 55.587,23.126 55.787,23.266 56.211,24.116 56.576,24.656    56.775,25.306 57,25.646 57.2,25.876 57.993,26.496 58.418,26.496 58.617,26.496 59.806,26.496 60,26.271 60,21.257 59.976,21.257     "/>
	<polyline fill-rule="evenodd" clip-rule="evenodd" fill="#D3E4B8" points="55.812,59.97 56.012,59.661 56.236,59.316    56.576,58.891 57,58.241 57.425,58.101 57.425,57.701 58.193,56.911 58.418,56.711 58.617,56.286 58.617,55.066 56.576,54.301    56.236,54.501 55.787,54.642 55.587,54.867 55.248,55.292 54.823,56.286 54.599,56.486 54.399,56.911 54.029,57.05 53.405,57.476    52.842,57.476 52.218,57.251 51.793,57.251 50.805,57.476 50.436,57.701 50.235,57.9 49.587,58.465 49.587,58.667 49.587,59.09    49.812,59.46 50.011,59.46 50.436,59.885 50.575,60 55.812,60 55.812,59.97  "/>
	<polyline fill-rule="evenodd" clip-rule="evenodd" fill="#D3E4B8" points="41.04,4.899 41.664,5.044 41.858,5.269 42.229,5.269    43.077,5.469 43.217,5.469 43.646,5.894 43.841,6.119 44.04,6.884 44.04,7.309 44.265,7.879 44.265,8.499 45.453,8.869    45.683,8.869 46.022,8.644 46.446,8.499 46.871,8.304 47.011,7.879 47.435,7.309 47.435,6.884 47.24,6.119 47.011,5.894    46.871,5.469 46.672,5.269 46.446,5.044 46.247,4.899 46.022,4.705 45.822,4.279 45.683,3.515 45.453,3.09 45.453,2.52    45.453,2.095 42.428,0.905 42.004,1.105 41.858,1.33 41.04,2.295 40.671,2.665 40.052,3.709 40.052,4.08 40.052,4.504    40.477,4.705 41.04,4.899  "/>
	<polyline fill-rule="evenodd" clip-rule="evenodd" fill="#D3E4B8" points="45.822,13.658 45.029,14.083 44.834,14.313    44.465,14.508 44.265,14.878 44.265,15.078 44.265,15.503 44.265,15.927 44.604,15.927 46.446,16.068 47.435,15.927 48.059,15.927    48.623,15.728 49.616,15.503 50.041,15.503 50.465,15.302 51.229,15.078 52.447,14.878 53.011,14.738 55.388,14.508 55.617,14.313    55.617,14.083 55.812,13.318 55.812,12.893 55.617,11.478 55.617,11.278 55.248,10.713 54.823,9.864 54.624,9.718 54.399,9.093    54.199,8.869 53.83,8.304 53.211,7.879 52.642,7.879 51.793,8.869 51.653,11.478 51.454,11.903 50.805,12.128 50.605,12.328    50.465,12.328 50.041,12.468 49.277,12.693 49.048,12.893 48.199,13.123 47.859,13.318 47.435,13.318 45.822,13.658  "/>
	<polyline fill-rule="evenodd" clip-rule="evenodd" fill="#D3E4B8" points="44.265,25.281 44.265,25.506 44.604,25.646    45.229,25.846 45.653,25.846 46.446,25.846 46.871,25.846 47.211,25.846 47.835,25.846 48.398,26.071 49.048,26.271 49.247,26.496    50.235,26.695 50.605,26.695 50.805,26.496 50.805,26.271 50.805,24.316 50.605,23.891 50.465,23.466 49.812,23.097 49.247,22.896    48.623,22.472 48.199,22.247 48.059,21.682 47.835,21.481 47.835,20.492 47.211,19.867 46.642,19.497 46.217,19.497 46.022,19.297    45.029,19.297 44.265,20.717 44.465,20.832 45.029,21.907 45.029,22.247 44.805,22.896 44.604,22.896 44.265,23.236 44.04,23.667    43.841,24.316 43.841,24.656 44.04,24.856 44.265,25.281  "/>
	<polyline fill-rule="evenodd" clip-rule="evenodd" fill="#D3E4B8" points="8.492,34.464 8.891,34.264 9.879,33.694 10.528,33.074    10.673,32.844 10.868,32.505 11.098,32.081 11.098,31.515 10.868,30.666 10.673,30.465 9.68,30.095 8.267,31.291 7.927,31.291    7.927,31.515 7.273,32.505 7.079,32.844 6.934,33.074 6.51,33.27 4.897,33.5 3.909,34.035 3.679,34.264 3.679,34.69 3.484,35.114    3.484,35.455 3.484,35.679 3.484,36.105 3.484,36.304 3.679,36.674 4.108,36.87 4.333,37.294 4.672,38.289 4.672,38.489    4.533,39.053 4.533,39.479 4.333,39.704 4.108,40.129 4.108,40.244 4.672,40.244 5.097,40.244 5.861,40.244 6.51,40.129    6.709,39.479 6.934,39.053 6.934,38.714 6.709,38.064 6.285,37.495 6.085,37.099 6.085,36.87 6.285,36.304 6.51,35.879    6.51,35.679 6.934,35.254 7.079,35.114 8.127,34.69 8.492,34.464  "/>
	<polyline fill-rule="evenodd" clip-rule="evenodd" fill="#D3E4B8" points="0.085,31.121 0.514,31.315 0.938,31.315 2.891,31.315    3.115,31.09 4.303,31.09 4.533,30.89 5.097,30.666 5.296,30.465 5.521,30.095 5.721,29.9 5.861,29.67 5.861,29.475 6.061,29.105    6.061,27.916 6.285,27.065 6.285,26.866 6.285,26.526 5.861,26.301 5.521,26.071 4.672,25.876 4.303,25.876 3.679,25.876    3.455,26.526 3.455,27.491 3.115,28.286 2.891,28.71 2.466,28.906 2.126,28.906 0.709,28.906 0.06,28.65 0.085,31.09 0.085,31.121     "/>
	<polyline fill-rule="evenodd" clip-rule="evenodd" fill="#D3E4B8" points="59.976,28.65 59.606,28.481 59.182,28.481    58.617,28.681 58.193,28.681 57.764,29.105 57.654,29.246 57.425,29.67 57.229,29.9 57.229,30.325 57.654,30.465 58.418,30.465    58.982,30.666 59.406,30.666 59.606,30.865 60,31.09 60,28.65 59.976,28.65  "/>
	<polyline fill-rule="evenodd" clip-rule="evenodd" fill="#D3E4B8" points="40.052,45.882 40.446,46.112 40.671,46.253    40.815,47.103 40.815,47.442 40.815,48.092 40.671,48.292 40.671,48.632 40.446,49.058 40.446,49.482 40.671,50.277 40.815,50.477    41.435,50.702 41.858,50.702 42.004,50.477 42.428,50.277 42.428,50.052 42.428,49.712 42.428,48.493 42.428,47.868 42.853,47.302    43.416,47.103 43.616,47.302 43.841,47.667 44.265,48.092 44.465,48.092 44.604,48.292 45.453,48.632 45.792,48.632 46.247,48.493    46.247,48.292 46.247,48.092 46.022,47.667 45.792,47.442 45.453,47.103 45.259,46.877 45.029,46.677 44.834,46.453 44.604,46.253    44.265,45.688 44.04,44.918 43.841,44.493 43.616,44.068 43.616,43.843 43.616,43.503 43.191,43.079 43.047,42.854 42.853,42.653    42.428,42.653 42.229,42.653 41.435,42.653 41.24,42.854 40.815,43.079 40.671,43.278 40.052,43.704 39.482,43.843 38.409,44.068    37.646,44.268 37.076,44.268 37.076,44.693 37.076,45.458 37.221,45.688 37.646,45.882 38.634,45.688 40.052,45.882  "/>
	<polyline fill-rule="evenodd" clip-rule="evenodd" fill="#D3E4B8" points="49.616,54.077 49.387,53.676 49.247,53.452    49.048,53.312 48.398,52.687 47.835,52.687 47.211,52.687 46.217,53.112 46.022,53.312 45.653,53.452 44.465,54.527 43.047,54.642    42.623,54.867 42.004,55.292 41.858,55.862 41.858,56.286 41.858,57.276 42.428,57.476 42.853,57.476 43.841,57.476 45.229,57.05    46.217,56.911 46.642,56.911 46.871,56.711 47.211,56.486 47.835,55.862 48.059,55.715 48.623,55.492 49.247,55.066 49.387,54.642    49.616,54.301 49.616,54.077  "/>
	<polyline fill-rule="evenodd" clip-rule="evenodd" fill="#D3E4B8" points="31.67,44.468 32.095,44.693 32.294,44.693    32.634,44.693 32.634,44.468 32.634,44.042 32.634,43.278 32.434,42.653 32.095,42.088 31.869,41.664 31.67,41.434 29.039,39.678    28.7,39.253 28.076,38.684 27.851,38.064 27.651,37.718 27.512,37.27 27.287,37.069 27.087,36.645 26.663,36.645 26.099,36.645    25.869,37.495 25.869,37.833 26.099,38.684 26.293,39.053 26.293,39.253 26.863,40.104 27.287,40.668 28.076,41.434 28.5,41.664    29.269,42.513 30.682,43.704 31.67,44.468  "/>
	<polyline fill-rule="evenodd" clip-rule="evenodd" fill="#D3E4B8" points="53.859,44.268 55.812,44.068 55.812,43.728    55.812,43.079 55.617,42.653 55.617,42.513 55.048,41.888 54.823,41.664 54.624,41.463 54.624,41.093 54.199,40.468 54.06,40.129    54.06,39.903 53.859,39.479 52.872,39.903 52.447,39.903 52.218,41.463 52.022,41.664 51.454,41.664 50.041,41.888 49.841,42.088    49.417,42.088 49.048,42.653 48.854,42.878 48.854,43.302 48.854,43.728 48.854,44.068 49.277,44.268 50.465,44.723 51.029,44.723    52.218,44.723 52.872,44.493 53.211,44.268 53.859,44.268  "/>
	<polyline fill-rule="evenodd" clip-rule="evenodd" fill="#D3E4B8" points="12.71,41.858 12.485,42.088 12.255,42.284    12.061,42.653 11.831,43.278 11.831,43.704 12.061,44.068 12.71,44.493 13.474,44.893 14.098,45.063 14.462,45.063 15.426,44.893    15.85,44.693 15.85,44.268 15.655,43.278 15.655,42.854 15.426,42.653 14.892,41.858 14.462,41.434 14.237,41.093 14.098,40.668    14.098,37.495 13.898,37.294 13.474,37.069 12.91,36.645 12.485,36.645 11.722,36.645 10.643,38.064 10.868,38.489 11.067,38.914    11.722,39.678 11.831,40.104 12.485,40.668 12.485,40.894 12.71,41.318 12.71,41.434 12.71,41.858  "/>
	<path fill-rule="evenodd" clip-rule="evenodd" fill="#D3E4B8" d="M36.458,17.882c-0.43-0.395-1.219-0.395-1.419,0.225   c-0.369,0.339-0.369,0.994,0.2,1.42c0.424,0.34,0.988,0.34,1.413-0.23C37.076,18.872,36.882,18.337,36.458,17.882"/>
	<path fill-rule="evenodd" clip-rule="evenodd" fill="#D3E4B8" d="M60,15.302c-0.618-0.395-1.188-0.395-1.582,0.201   c-0.425,0.424-0.2,0.99,0.225,1.415c0.454,0.315,0.993,0.255,1.357-0.025V15.302"/>
	<path fill-rule="evenodd" clip-rule="evenodd" fill="#D3E4B8" d="M39.707,60l0.314-0.34c0.2-0.345,0.2-0.994-0.199-1.42   c-0.564-0.341-1.218-0.14-1.558,0.225c-0.425,0.426-0.225,0.995,0.145,1.42L38.494,60H39.707"/>
	<path fill-rule="evenodd" clip-rule="evenodd" fill="#D3E4B8" d="M50.465,4.899c0.34,0.37,0.964,0.37,1.328,0   c0.425-0.62,0.2-1.19-0.14-1.614c-0.424-0.195-1.188-0.195-1.418,0.229C49.812,3.854,49.812,4.705,50.465,4.899"/>
	<path fill-rule="evenodd" clip-rule="evenodd" fill="#D3E4B8" d="M51.259,51.466c-0.454,0.426-0.229,0.996,0.195,1.42   c0.568,0.426,1.188,0.226,1.418-0.199c0.339-0.426,0.339-0.996-0.23-1.42C52.218,50.926,51.653,51.042,51.259,51.466"/>
	<path fill-rule="evenodd" clip-rule="evenodd" fill="#D3E4B8" d="M28.7,46.253c-0.454,0.649-0.454,1.219,0,1.644   c0.539,0.426,1.188,0.195,1.528-0.229c0.424-0.34,0.229-1.189-0.195-1.414C29.663,45.913,28.814,45.913,28.7,46.253"/>
	<path fill-rule="evenodd" clip-rule="evenodd" fill="#D3E4B8" d="M19.699,45.688c-0.449,0.424-0.449,1.215,0.2,1.415   c0.424,0.369,0.988,0.369,1.413-0.2c0.339-0.425,0.199-0.99-0.225-1.416C20.663,45.063,19.898,45.263,19.699,45.688"/>
	<path fill-rule="evenodd" clip-rule="evenodd" fill="#D3E4B8" d="M1.079,51.243c-0.37,0.424-0.17,0.988,0.199,1.414   c0.424,0.425,1.188,0.425,1.613-0.194c0.224-0.371,0.224-0.996-0.2-1.42C2.126,50.702,1.473,50.902,1.079,51.243"/>
	<path fill-rule="evenodd" clip-rule="evenodd" fill="#D3E4B8" d="M6.709,21.481c-0.424,0.425-0.424,0.99,0.2,1.415   c0.339,0.37,0.988,0.37,1.328-0.195c0.424-0.425,0.23-0.995-0.14-1.42C7.673,20.856,7.049,21.057,6.709,21.481"/>
	<path fill-rule="evenodd" clip-rule="evenodd" fill="#D3E4B8" d="M39.482,38.064c-0.225,0.425-0.225,1.214,0.34,1.64   c0.424,0.199,1.048,0.199,1.418-0.225c0.424-0.565,0.194-1.19-0.229-1.615C40.671,37.718,39.822,37.718,39.482,38.064"/>
	<path fill-rule="evenodd" clip-rule="evenodd" fill="#D3E4B8" d="M55.617,36.304c0.194-0.625,0.194-1.19-0.229-1.614   c-0.34-0.426-1.188-0.2-1.558,0.225c-0.195,0.57-0.195,1.19,0.229,1.529C54.624,36.674,55.248,36.674,55.617,36.304"/>
	<path fill-rule="evenodd" clip-rule="evenodd" fill="#D3E4B8" d="M18.71,12.098c0.424-0.425,0.424-1.045-0.225-1.385   c-0.429-0.425-1.193-0.425-1.418,0.195c-0.424,0.37-0.339,0.995,0.225,1.419C17.717,12.668,18.256,12.668,18.71,12.098"/>
	<polyline fill-rule="evenodd" clip-rule="evenodd" fill="#D3E4B8" points="15.88,30.095 16.304,29.475 16.504,28.906 16.504,28.71    16.644,28.481 16.644,28.286 17.832,27.715 17.832,27.091 17.832,26.866 17.832,26.526 17.692,26.526 17.068,26.526 16.644,26.301    15.88,26.526 15.655,26.866 15.456,27.491 15.315,27.491 14.892,27.715 14.237,27.715 13.898,27.715 13.673,27.715 13.049,27.715    12.71,28.056 12.485,28.286 12.485,28.481 12.485,28.71 12.485,28.906 12.71,29.135 13.673,29.475 13.898,29.67 14.098,29.9    14.462,30.465 14.662,30.666 14.892,30.89 15.086,30.89 15.456,30.666 15.655,30.666 15.88,30.465 15.88,30.095  "/>
	<polyline fill-rule="evenodd" clip-rule="evenodd" fill="#D3E4B8" points="39.822,17.458 40.021,19.297 40.646,19.667    41.21,19.667 42.004,19.527 42.198,18.872 41.858,18.307 41.635,17.682 41.21,17.118 41.21,16.493 41.635,15.503 40.222,14.848    39.598,15.272 39.258,15.927 39.258,16.493 39.822,16.917 39.822,17.458  "/>
	<polyline fill-rule="evenodd" clip-rule="evenodd" fill="#D3E4B8" points="43.217,11.053 42.652,10.938 42.229,10.938    41.858,11.053 41.011,11.903 40.815,12.128 40.671,12.328 40.671,12.693 41.858,12.893 42.428,13.318 42.853,13.318 43.077,13.123    43.217,12.893 43.416,12.693 43.646,12.328 43.841,11.903 43.841,11.703 43.646,11.278 43.646,11.053 43.217,11.053  "/>
</g>
</svg>